<svg width="42" height="42" viewBox="0 0 42 42" fill="none" xmlns="http://www.w3.org/2000/svg">
<path d="M19.8374 3.94203C20.5004 3.35266 21.4996 3.35266 22.1627 3.94203L37.9127 17.942C38.635 18.5841 38.7001 19.6903 38.058 20.4126C37.4159 21.135 36.3098 21.2001 35.5874 20.558L35 20.0359V33.25C35 35.183 33.433 36.75 31.5 36.75H10.5C8.56702 36.75 7.00002 35.183 7.00002 33.25V20.0359L6.41266 20.558C5.69029 21.2001 4.58416 21.135 3.94205 20.4126C3.29995 19.6903 3.36501 18.5841 4.08738 17.942L19.8374 3.94203ZM10.5 16.9248V33.25H15.75V24.5C15.75 23.5335 16.5335 22.75 17.5 22.75H24.5C25.4665 22.75 26.25 23.5335 26.25 24.5V33.25H31.5V16.9248L21 7.59142L10.5 16.9248ZM22.75 33.25V26.25H19.25V33.25H22.75Z" fill="white"/>
</svg>