<svg xmlns="http://www.w3.org/2000/svg" width="38" height="38" viewBox="0 0 38 38" fill="none">
  <path d="M15.7604 3.4993C17.8962 3.05143 20.1016 3.05035 22.2378 3.49614C22.3801 4.43551 22.7323 5.33073 23.2682 6.11525C23.8041 6.89978 24.51 7.55344 25.3332 8.02764C26.1559 8.50348 27.0752 8.78774 28.0228 8.85928C28.9705 8.93083 29.9221 8.78782 30.8068 8.44089C32.2608 10.0686 33.3621 11.9797 34.0416 14.0538C33.2995 14.6469 32.7007 15.3996 32.2895 16.2559C31.8783 17.1122 31.6654 18.0502 31.6666 19.0001C31.6666 21.0015 32.5944 22.7859 34.0447 23.9465C33.3613 26.0189 32.2586 27.9284 30.8052 29.5562C29.9207 29.2095 28.9694 29.0667 28.0221 29.1382C27.0747 29.2097 26.1557 29.4939 25.3332 29.9695C24.5106 30.4435 23.8053 31.0968 23.2697 31.8807C22.7342 32.6646 22.382 33.5591 22.2394 34.4978C20.1038 34.9467 17.8985 34.9489 15.762 34.5041C15.6204 33.5639 15.2685 32.6678 14.7325 31.8824C14.1966 31.097 13.4904 30.4426 12.6666 29.9679C11.8438 29.4923 10.9244 29.2083 9.97679 29.137C9.02915 29.0658 8.07763 29.209 7.193 29.5562C5.73886 27.928 4.6375 26.0164 3.95824 23.9417C4.69987 23.349 5.29847 22.5968 5.70962 21.7411C6.12078 20.8853 6.33393 19.9479 6.33324 18.9986C6.33402 18.0484 6.12061 17.1102 5.70889 16.2539C5.29716 15.3975 4.6977 14.645 3.95508 14.0522C4.63855 11.9798 5.74127 10.0703 7.19458 8.44247C8.07911 8.78915 9.0304 8.93203 9.97775 8.86049C10.9251 8.78894 11.8441 8.50482 12.6666 8.02922C13.4892 7.55517 14.1945 6.90192 14.7301 6.11799C15.2657 5.33405 15.6178 4.43955 15.7604 3.50089V3.4993ZM18.9999 23.7501C20.2597 23.7501 21.4679 23.2497 22.3587 22.3589C23.2495 21.4681 23.7499 20.2599 23.7499 19.0001C23.7499 17.7404 23.2495 16.5322 22.3587 15.6414C21.4679 14.7506 20.2597 14.2501 18.9999 14.2501C17.7401 14.2501 16.532 14.7506 15.6412 15.6414C14.7504 16.5322 14.2499 17.7404 14.2499 19.0001C14.2499 20.2599 14.7504 21.4681 15.6412 22.3589C16.532 23.2497 17.7401 23.7501 18.9999 23.7501V23.7501Z" fill="white"/>
</svg>