<svg width="38" height="38" viewBox="0 0 38 38" fill="none" xmlns="http://www.w3.org/2000/svg">
<g clip-path="url(#clip0_56_1164)">
<path d="M15.7605 3.4993C17.8963 3.05143 20.1016 3.05035 22.2379 3.49614C22.3802 4.43551 22.7324 5.33073 23.2683 6.11525C23.8042 6.89978 24.51 7.55344 25.3333 8.02764C26.1559 8.50348 27.0753 8.78774 28.0229 8.85928C28.9706 8.93083 29.9221 8.78782 30.8069 8.44089C32.2608 10.0686 33.3622 11.9797 34.0416 14.0538C33.2996 14.6469 32.7007 15.3996 32.2896 16.2559C31.8784 17.1122 31.6655 18.0502 31.6666 19.0001C31.6666 21.0015 32.5945 22.7859 34.0448 23.9465C33.3613 26.0189 32.2586 27.9284 30.8053 29.5562C29.9208 29.2095 28.9695 29.0667 28.0221 29.1382C27.0748 29.2097 26.1557 29.4939 25.3333 29.9695C24.5107 30.4435 23.8054 31.0968 23.2698 31.8807C22.7342 32.6646 22.3821 33.5591 22.2395 34.4978C20.1039 34.9467 17.8985 34.9489 15.7621 34.5041C15.6204 33.5639 15.2685 32.6678 14.7326 31.8824C14.1967 31.097 13.4905 30.4426 12.6666 29.9679C11.8439 29.4923 10.9245 29.2083 9.97685 29.137C9.02921 29.0658 8.07769 29.209 7.19306 29.5562C5.73892 27.928 4.63756 26.0164 3.95831 23.9417C4.69993 23.349 5.29853 22.5968 5.70969 21.7411C6.12084 20.8853 6.33399 19.9479 6.33331 18.9986C6.33408 18.0484 6.12067 17.1102 5.70895 16.2539C5.29722 15.3975 4.69776 14.645 3.95514 14.0522C4.63861 11.9798 5.74133 10.0703 7.19464 8.44247C8.07917 8.78915 9.03046 8.93203 9.97781 8.86049C10.9252 8.78894 11.8442 8.50482 12.6666 8.02922C13.4893 7.55517 14.1945 6.90192 14.7301 6.11799C15.2657 5.33405 15.6179 4.43955 15.7605 3.50089V3.4993ZM19 23.7501C20.2598 23.7501 21.4679 23.2497 22.3587 22.3589C23.2495 21.4681 23.75 20.2599 23.75 19.0001C23.75 17.7404 23.2495 16.5322 22.3587 15.6414C21.4679 14.7506 20.2598 14.2501 19 14.2501C17.7402 14.2501 16.532 14.7506 15.6412 15.6414C14.7504 16.5322 14.25 17.7404 14.25 19.0001C14.25 20.2599 14.7504 21.4681 15.6412 22.3589C16.532 23.2497 17.7402 23.7501 19 23.7501Z" fill="white"/>
</g>
<defs>
<clipPath id="clip0_56_1164">
<rect width="38" height="38" fill="white"/>
</clipPath>
</defs>
</svg>