<svg xmlns="http://www.w3.org/2000/svg" width="29" height="29" viewBox="0 0 29 29" fill="none">
  <path d="M5.05852 23.6764V16.6217C5.05852 14.127 6.04954 11.7344 7.81357 9.97041C9.57759 8.20638 11.9701 7.21536 14.4648 7.21536C16.9595 7.21536 19.3521 8.20638 21.1161 9.97041C22.8801 11.7344 23.8711 14.127 23.8711 16.6217V23.6764H25.0469V26.028H3.88273V23.6764H5.05852ZM7.4101 16.6217H9.76168C9.76168 15.3743 10.2572 14.1781 11.1392 13.296C12.0212 12.414 13.2175 11.9185 14.4648 11.9185V9.56694C12.5938 9.56694 10.7994 10.3102 9.47638 11.6332C8.15337 12.9562 7.4101 14.7506 7.4101 16.6217V16.6217ZM13.289 2.51221H15.6406V6.03957H13.289V2.51221ZM23.6101 5.81382L25.2727 7.47639L22.78 9.97024L21.1163 8.30767L23.6101 5.81382ZM3.65698 7.47639L5.31955 5.81382L7.8134 8.30649L6.15201 9.97141L3.65698 7.47639Z" fill="#9B9B9B"/>
</svg>